<?xml version="1.0" standalone="no"?>
<!DOCTYPE svg PUBLIC "-//W3C//DTD SVG 20010904//EN"
 "http://www.w3.org/TR/2001/REC-SVG-20010904/DTD/svg10.dtd">
<svg version="1.0" xmlns="http://www.w3.org/2000/svg"
 width="12.000000pt" height="12.000000pt" viewBox="0 0 512.000000 512.000000"
 preserveAspectRatio="xMidYMid meet">

<g transform="translate(0.000000,512.000000) scale(0.100000,-0.100000)"
fill="#000000" stroke="none">
<path d="M2325 5114 c-537 -53 -834 -127 -1147 -284 -251 -126 -427 -278 -526
-455 -88 -158 -82 -18 -82 -1815 0 -1797 -6 -1657 82 -1815 205 -366 754 -634
1483 -721 209 -26 641 -26 850 0 533 64 977 225 1256 456 143 118 254 278 290
418 18 73 19 129 19 1662 0 1797 6 1657 -82 1815 -101 180 -276 331 -536 460
-261 129 -574 216 -942 260 -127 16 -573 28 -665 19z m655 -208 c342 -45 610
-118 849 -232 456 -218 633 -524 469 -813 -41 -73 -173 -204 -270 -269 -726
-487 -2210 -487 -2936 0 -97 65 -229 196 -270 269 -164 289 13 595 469 813
250 120 564 202 894 235 61 6 126 13 145 15 83 10 533 -3 650 -18z m-1985
-1478 c520 -343 1404 -477 2215 -337 442 77 848 251 1078 464 l72 67 0 -305
c0 -347 -6 -384 -80 -495 -202 -303 -720 -525 -1380 -593 -148 -16 -532 -16
-680 0 -562 58 -1012 222 -1264 462 -93 88 -149 170 -176 256 -18 59 -20 93
-20 370 l0 305 73 -67 c39 -37 113 -94 162 -127z m-23 -995 c600 -414 1707
-530 2588 -271 295 87 558 226 731 386 l69 64 0 -305 c0 -276 -2 -311 -20
-369 -40 -129 -152 -261 -313 -369 -581 -388 -1672 -482 -2485 -213 -406 134
-691 352 -762 582 -18 58 -20 93 -20 369 l0 305 69 -64 c39 -36 103 -87 143
-115z m22 -1027 c729 -480 2101 -528 2949 -104 135 67 252 146 342 230 l76 71
-3 -324 c-3 -310 -4 -326 -26 -380 -122 -304 -575 -557 -1177 -658 -227 -38
-327 -46 -595 -46 -268 0 -368 8 -595 46 -602 101 -1055 354 -1177 658 -22 54
-23 70 -26 380 l-3 324 76 -71 c41 -39 113 -95 159 -126z"/>
<path d="M2380 4783 c-630 -30 -1231 -256 -1414 -531 -72 -109 -85 -204 -29
-218 33 -9 58 18 67 74 7 49 74 142 142 198 252 211 746 361 1245 380 188 7
197 8 211 39 9 21 8 28 -7 45 -19 21 -33 22 -215 13z"/>
</g>
</svg>
